<svg width="48" height="48" viewBox="0 0 48 48" fill="none" xmlns="http://www.w3.org/2000/svg">
<circle cx="22.5" cy="22.5" r="18.5" fill="#ECECEC" stroke="#C7C7C7" stroke-width="2"/>
<rect x="34.6221" y="36.0371" width="2" height="12.1202" rx="1" transform="rotate(-45 34.6221 36.0371)" fill="#C4C4C4"/>
<mask id="path-3-inside-1_2118_45456" fill="white">
<path fill-rule="evenodd" clip-rule="evenodd" d="M22.5 42C33.2696 42 42 33.2696 42 22.5C42 20.3606 41.6555 18.3017 41.0189 16.3757C40.2856 15.5328 39.205 15 38 15H19C16.7909 15 15 16.7909 15 19V39C15 39.5881 15.1269 40.1465 15.3548 40.6494C17.5674 41.5211 19.9778 42 22.5 42Z"/>
</mask>
<path fill-rule="evenodd" clip-rule="evenodd" d="M22.5 42C33.2696 42 42 33.2696 42 22.5C42 20.3606 41.6555 18.3017 41.0189 16.3757C40.2856 15.5328 39.205 15 38 15H19C16.7909 15 15 16.7909 15 19V39C15 39.5881 15.1269 40.1465 15.3548 40.6494C17.5674 41.5211 19.9778 42 22.5 42Z" fill="#FAFAFA"/>
<path d="M41.0189 16.3757L42.9179 15.7481L42.7917 15.3663L42.5278 15.063L41.0189 16.3757ZM15.3548 40.6494L13.5332 41.4749L13.8677 42.2131L14.6217 42.5102L15.3548 40.6494ZM40 22.5C40 32.165 32.165 40 22.5 40V44C34.3741 44 44 34.3741 44 22.5H40ZM39.1199 17.0034C39.6904 18.7294 40 20.5766 40 22.5H44C44 20.1447 43.6205 17.874 42.9179 15.7481L39.1199 17.0034ZM38 17C38.6021 17 39.1404 17.2636 39.51 17.6885L42.5278 15.063C41.4308 13.8021 39.8079 13 38 13V17ZM19 17H38V13H19V17ZM17 19C17 17.8954 17.8954 17 19 17V13C15.6863 13 13 15.6863 13 19H17ZM17 39V19H13V39H17ZM17.1765 39.8238C17.0638 39.5751 17 39.2977 17 39H13C13 39.8784 13.19 40.7179 13.5332 41.4749L17.1765 39.8238ZM22.5 40C20.2328 40 18.0709 39.5699 16.088 38.7886L14.6217 42.5102C17.0639 43.4724 19.7228 44 22.5 44V40Z" fill="#C7C7C7" mask="url(#path-3-inside-1_2118_45456)"/>
<path d="M28.1854 21C26.8962 21 25.872 21.4038 25.1302 22.2308C24.3709 23.0385 24 24.1346 24 25.5385H25.872C25.872 24.6923 26.0309 24.0192 26.3488 23.5577C26.702 23.0192 27.2848 22.75 28.0795 22.75C28.7152 22.75 29.2097 22.9423 29.5629 23.3269C29.8985 23.7115 30.0751 24.2308 30.0751 24.9038C30.0751 25.4038 29.9161 25.8654 29.5982 26.3077L29.298 26.6731C28.2031 27.7308 27.532 28.5192 27.2848 29.0577C27.0552 29.5577 26.9492 30.1731 26.9492 30.8846V31.2115H28.8389V30.8846C28.8389 30.4038 28.9272 29.9808 29.1214 29.5962C29.2804 29.25 29.5276 28.9231 29.8455 28.6154C30.6932 27.8269 31.1876 27.3269 31.3466 27.1154C31.7704 26.5 32 25.7115 32 24.7692C32 23.6154 31.6468 22.6923 30.9581 22.0192C30.2517 21.3269 29.3333 21 28.1854 21V21ZM27.8852 32.25C27.5143 32.25 27.2141 32.3654 26.9845 32.6346C26.7196 32.8846 26.596 33.2115 26.596 33.6154C26.596 34 26.7196 34.3269 26.9845 34.5962C27.2141 34.8654 27.5143 35 27.8852 35C28.2384 35 28.5563 34.8654 28.8212 34.6154C29.0684 34.3462 29.1921 34.0192 29.1921 33.6154C29.1921 33.2115 29.0684 32.8846 28.8212 32.6346C28.574 32.3654 28.2561 32.25 27.8852 32.25V32.25Z" fill="#C7C7C7"/>
</svg>
