<svg width="32" height="32" viewBox="0 0 32 32" fill="none" xmlns="http://www.w3.org/2000/svg">
<path fill-rule="evenodd" clip-rule="evenodd" d="M19.1306 10.7436C21.4737 13.0867 21.4737 16.8857 19.1306 19.2288C16.7874 21.572 12.9884 21.572 10.6453 19.2288C8.30214 16.8857 8.30214 13.0867 10.6453 10.7436C12.9884 8.40042 16.7874 8.40042 19.1306 10.7436ZM21.2989 19.7733C23.6446 16.64 23.3933 12.1778 20.5448 9.32935C17.4206 6.20516 12.3553 6.20516 9.23107 9.32935C6.10688 12.4535 6.10688 17.5189 9.23107 20.6431C12.1518 23.5638 16.7691 23.754 19.9108 21.2136L23.8191 25.1219C24.2096 25.5124 24.8428 25.5124 25.2333 25.1219C25.6238 24.7314 25.6238 24.0982 25.2333 23.7077L21.2989 19.7733Z" fill="#757575"/>
</svg>
